HIERARCHY
ROOT ui
{
	 OFFSET 0 0 0
	 CHANNELS 3 XPosition YPosition Z Position
	 EndSite
	 {
	 OFFSET 0 -1 0
	 }
}
ROOT li
{
	 OFFSET 0 0 0
	 CHANNELS 3 XPosition YPosition Z Position
	 EndSite
	 {
	 OFFSET 0 -1 0
	 }
}
ROOT ul
{
	 OFFSET 0 0 0
	 CHANNELS 3 XPosition YPosition Z Position
	 EndSite
	 {
	 OFFSET 0 -1 0
	 }
}
ROOT ll
{
	 OFFSET 0 0 0
	 CHANNELS 3 XPosition YPosition Z Position
	 EndSite
	 {
	 OFFSET 0 -1 0
	 }
}
ROOT tt
{
	 OFFSET 0 0 0
	 CHANNELS 3 XPosition YPosition Z Position
	 EndSite
	 {
	 OFFSET 0 -1 0
	 }
}
ROOT tb
{
	 OFFSET 0 0 0
	 CHANNELS 3 XPosition YPosition Z Position
	 EndSite
	 {
	 OFFSET 0 -1 0
	 }
}
ROOT td
{
	 OFFSET 0 0 0
	 CHANNELS 3 XPosition YPosition Z Position
	 EndSite
	 {
	 OFFSET 0 -1 0
	 }
}
ROOT v
{
	 OFFSET 0 0 0
	 CHANNELS 3 XPosition YPosition Z Position
	 EndSite
	 {
	 OFFSET 0 -1 0
	 }
}
ROOT bn
{
	 OFFSET 0 0 0
	 CHANNELS 3 XPosition YPosition Z Position
	 EndSite
	 {
	 OFFSET 0 -1 0
	 }
}
MOTION
Frames: 24
Frame Time: 0.002
0.012470959663391113	1.4424799382686614E-4	0		0.32174594116210936	-2.408142578125	0		-1.1557349853515626	-0.15946748352050782	0		-1.0215592041015624	-2.42243310546875	0		0.9757506713867188	-0.6676140747070313	0		2.63539013671875	0.052567096710205076	0		4.1653271484375	0.1894076385498047	0		5.540271484375	0.10027201843261718	0		-0.28882659912109376	5.89562890625	0		
-0.08288995361328125	-0.0015226800441741942	0		0.3261739807128906	-2.430118408203125	0		-1.18905859375	-0.15897404479980468	0		-1.0578245849609376	-2.420897705078125	0		0.9784340209960938	-0.6675523071289062	0		2.63215185546875	0.05974016189575195	0		4.16799365234375	0.18953265380859374	0		5.5488076171875	0.09034617614746093	0		-0.30620584106445314	5.9009287109375	0		
0.0268886775970459	-8.830770254135132E-4	0		0.3419303894042969	-2.434234375	0		-1.1703741455078125	-0.16515969848632814	0		-1.0410684814453126	-2.4250546875	0		0.9172932739257813	-0.6606441040039063	0		2.626899658203125	0.05894590759277344	0		4.1797373046875	0.18854562377929687	0		5.5615400390625	0.08837368774414063	0		-0.2675258483886719	5.9034970703125	0		
-0.0442400131225586	0.0041419978141784665	0		0.3369225769042969	-2.42406982421875	0		-1.1704532470703124	-0.15709036254882813	0		-0.9762005615234375	-2.424835205078125	0		1.115996826171875	-0.6711442260742188	0		2.649919189453125	0.07478729248046875	0		4.17462548828125	0.194785888671875	0		5.5584560546875	0.09661467742919921	0		-0.282775390625	5.90778125	0		
0.028476524353027343	-0.004715950965881348	0		0.3715570068359375	-2.442421875	0		-1.1706749267578125	-0.16101309204101563	0		-1.0163630981445313	-2.427230224609375	0		0.9868744506835937	-0.6673338012695312	0		2.627616455078125	0.0652252960205078	0		4.19246142578125	0.19572738647460938	0		5.56130810546875	0.09877872467041016	0		-0.2971624755859375	5.90005908203125	0		
-0.07661259460449218	0.0037633070945739745	0		0.3375699157714844	-2.4298662109375	0		-1.1619150390625	-0.16504598999023437	0		-0.9785791015625	-2.432639892578125	0		1.1186064453125	-0.6749386596679687	0		2.627360107421875	0.06037677001953125	0		4.18328173828125	0.19702354431152344	0		5.55998583984375	0.08899507141113282	0		-0.30858551025390624	5.8903037109375	0		
0.029116172790527344	4.8782899975776675E-4	0		0.37316021728515625	-2.446218994140625	0		-1.159148681640625	-0.16499234008789063	0		-0.995997314453125	-2.4493203125	0		0.9924703979492188	-0.6671629638671875	0		2.64612158203125	0.06028130340576172	0		4.181951171875	0.19021478271484374	0		5.56765625	0.0820904769897461	0		-0.27185263061523435	5.89492626953125	0		
-0.040235977172851566	-0.00249283504486084	0		0.36187652587890623	-2.446952392578125	0		-1.156452392578125	-0.16493020629882812	0		-0.9563114013671875	-2.452739013671875	0		0.9951737060546875	-0.6670707397460938	0		2.638985107421875	0.07352616119384765	0		4.19770654296875	0.19518145751953125	0		5.569544921875	0.09725851440429688	0		-0.28917416381835936	5.90026123046875	0		
0.04340020751953125	-4.6576100587844847E-4	0		0.3825735778808594	-2.4420986328125	0		-1.1508076171875	-0.16189891052246094	0		-0.9906357421875	-2.449183349609375	0		1.0008245239257811	-0.6640135498046875	0		2.655482666015625	0.06546054077148437	0		4.21230712890625	0.19516000366210937	0		5.57804296875	0.08933253479003907	0		-0.251592041015625	5.90388525390625	0		
-0.04007169342041016	0.002746614933013916	0		0.39092263793945314	-2.4550810546875	0		-1.15135009765625	-0.1647800750732422	0		-0.9202658081054688	-2.46098779296875	0		1.12919775390625	-0.6745545043945312	0		2.657976806640625	0.06557794189453126	0		4.20280126953125	0.19544935607910155	0		5.5746416015625	0.09755658721923828	0		-0.2501299743652344	5.90598681640625	0		
0.04420932388305664	-0.0042241039276123046	0		0.3912817993164063	-2.456954345703125	0		-1.148982666015625	-0.16469145202636717	0		-0.9578903198242188	-2.461376220703125	0		1.0026583251953125	-0.6667681274414062	0		2.682249267578125	0.05840981292724609	0		4.201087890625	0.18963179016113282	0		5.58290234375	0.08961944580078125	0		-0.29601364135742186	5.890708984375	0		
-0.035487812042236326	0.0029477810859680174	0		0.3655537109375	-2.453483642578125	0		-1.14676416015625	-0.16459320068359376	0		-0.9576857299804687	-2.463250732421875	0		1.0048795166015625	-0.6666587524414063	0		2.653586669921875	0.06793086242675782	0		4.2033046875	0.18975770568847655	0		5.5751201171875	0.08988274383544922	0		-0.25976409912109377	5.89536865234375	0		
-0.028503576278686524	-0.0020057721138000487	0		0.37951724243164064	-2.46052734375	0		-1.1217288818359374	-0.16578416442871094	0		-0.9796800537109375	-2.466828857421875	0		1.0099696655273438	-0.6635844116210937	0		2.666452880859375	0.053906448364257814	0		4.2143271484375	0.18776206970214843	0		5.58127392578125	0.09795468902587891	0		-0.27568801879882815	5.89871337890625	0		
-0.01954745864868164	0.005021007061004639	0		0.40835324096679687	-2.462760498046875	0		-1.131732177734375	-0.15550967407226562	0		-0.9418448486328125	-2.469178466796875	0		1.0118348999023437	-0.6634663696289063	0		2.6746044921875	0.07594361114501953	0		4.20828466796875	0.19498202514648438	0		5.5872431640625	0.1060176010131836	0		-0.2387703399658203	5.9023759765625	0		
-0.029901481628417968	0.003303349018096924	0		0.37113580322265627	-2.45312890625	0		-1.1411781005859376	-0.16423570251464845	0		-0.9581813354492188	-2.46881494140625	0		1.1393756103515624	-0.6739847412109375	0		2.681080078125	0.060995807647705076	0		4.22496826171875	0.19589703369140626	0		5.584810546875	0.09817583465576171	0		-0.2521938171386719	5.89369873046875	0		
-0.023494550704956055	-0.0016286929845809937	0		0.4333381652832031	-2.47279248046875	0		-1.139706787109375	-0.1640951690673828	0		-0.9118994750976562	-2.482260986328125	0		1.0119324340820313	-0.6661796264648437	0		2.66064599609375	0.06839548492431641	0		4.210365234375	0.19020870971679688	0		5.5821796875	0.09032169342041016	0		-0.28574188232421877	5.88928955078125	0		
-0.02221818733215332	-0.0014903169870376586	0		0.37967083740234375	-2.465942138671875	0		-1.1353931884765625	-0.16098414611816406	0		-0.9397647705078125	-2.490734130859375	0		1.1421124267578124	-0.6737344970703125	0		2.683830078125	0.06121857833862305	0		4.2116435546875	0.1903014678955078	0		5.58756103515625	0.09834680938720704	0		-0.28440203857421875	5.8894306640625	0		
-0.021129453659057617	-0.001347303032875061	0		0.41070782470703127	-2.467196533203125	0		-1.117399658203125	-0.16804620361328124	0		-0.9366865844726563	-2.488603759765625	0		1.017319580078125	-0.6629639892578125	0		2.67509033203125	0.07445140075683594	0		4.22170849609375	0.18826506042480468	0		5.5886513671875	0.0984075927734375	0		-0.24816465759277342	5.8941201171875	0		
-0.013123362541198731	0.005707324028015137	0		0.3856448059082031	-2.46171826171875	0		-1.11344873046875	-0.1649185791015625	0		-0.9018728637695312	-2.49288427734375	0		1.14714599609375	-0.66952294921875	0		2.6858359375	0.06141843795776367	0		4.21773193359375	0.19639773559570312	0		5.5936728515625	0.1063971939086914	0		-0.24714002990722655	5.89427099609375	0		
0.057525279998779294	-0.003059537887573242	0		0.4351873779296875	-2.47421875	0		-1.135677978515625	-0.1634432373046875	0		-0.9432183837890625	-2.49616455078125	0		1.1478902587890625	-0.669399658203125	0		2.681675537109375	0.06757213592529297	0		4.21849560546875	0.19645201110839844	0		5.590330078125	0.0984736099243164	0		-0.24624818420410155	5.89442578125	0		
-0.018834272384643556	-8.997979760169983E-4	0		0.4087843322753906	-2.470725341796875	0		-1.125088623046875	-0.16539358520507813	0		-0.8737877807617187	-2.505893798828125	0		1.1454410400390624	-0.6732396850585938	0		2.704204345703125	0.06036363983154297	0		4.21912158203125	0.19649098205566407	0		5.59095361328125	0.09847626495361328	0		-0.2454713439941406	5.8945830078125	0		
0.055602256774902346	-0.005721282958984375	0		0.4170588684082031	-2.48169091796875	0		-1.1186644287109375	-0.17028648376464844	0		-0.9483097534179687	-2.5007294921875	0		1.145916015625	-0.6731235961914063	0		2.673822998046875	0.06983909606933594	0		4.224517578125	0.18844792175292968	0		5.5914521484375	0.09845629119873046	0		-0.278871337890625	5.889189453125	0		
-0.017959794998168944	-5.962859988212586E-4	0		0.3914195556640625	-2.4762119140625	0		-1.111212890625	-0.16418922424316407	0		-0.8991409301757812	-2.51019091796875	0		1.155244384765625	-0.6751309204101562	0		2.685031982421875	0.05675307846069336	0		4.21291748046875	0.18961004638671874	0		5.595939453125	0.10635911560058593	0		-0.27730044555664063	5.8883369140625	0		
0.06637818145751953	0.004443758010864258	0		0.4137192993164063	-2.466367919921875	0		-1.1069007568359375	-0.16004794311523438	0		-0.9478495483398437	-2.50035693359375	0		1.16056298828125	-0.6690914306640625	0		2.7004443359375	0.06760010528564453	0		4.2213486328125	0.20148997497558593	0		5.6003017578125	0.11323844909667968	0		-0.2748313598632813	5.88647265625	0		
